<?xml version="1.0" standalone="no"?>
<!DOCTYPE svg PUBLIC "-//W3C//DTD SVG 20010904//EN"
 "http://www.w3.org/TR/2001/REC-SVG-20010904/DTD/svg10.dtd">
<svg version="1.0" xmlns="http://www.w3.org/2000/svg"
 width="2048.000000pt" height="2048.000000pt" viewBox="0 0 2048.000000 2048.000000"
 preserveAspectRatio="xMidYMid meet">
<metadata>
Created by potrace 1.14, written by Peter Selinger 2001-2017
</metadata>
<g transform="translate(0.000000,2048.000000) scale(0.100000,-0.100000)"
fill="#000000" stroke="none">
<path d="M10165 19833 c-82 -17 -201 -75 -270 -131 -29 -23 -172 -154 -259
-235 -105 -98 -239 -193 -456 -322 -202 -120 -512 -337 -565 -395 -10 -11 -21
-20 -26 -20 -4 0 -35 -27 -69 -60 -35 -34 -67 -57 -73 -53 -7 3 -9 3 -5 -1 10
-11 -53 -77 -66 -69 -6 3 -8 3 -4 -1 9 -10 -32 -57 -44 -50 -5 3 -7 2 -6 -3 4
-13 -35 -53 -45 -46 -6 3 -7 1 -4 -4 4 -6 -13 -32 -38 -58 -25 -25 -45 -48
-45 -51 0 -4 -28 -38 -66 -80 -12 -13 -25 -20 -29 -16 -5 4 -5 1 -1 -6 4 -6 1
-19 -6 -27 -30 -33 -38 -45 -38 -55 0 -5 -4 -10 -8 -10 -4 0 -16 -14 -26 -30
-9 -17 -22 -27 -28 -24 -7 4 -8 2 -4 -4 4 -7 -19 -51 -53 -102 -34 -49 -58
-90 -54 -90 5 0 -1 -7 -11 -15 -11 -8 -16 -15 -10 -15 5 0 2 -6 -7 -13 -16
-12 -19 -18 -19 -38 0 -5 -4 -7 -10 -4 -6 4 -7 -1 -3 -11 5 -14 3 -16 -12 -11
-15 6 -16 5 -6 -7 10 -12 8 -19 -7 -34 -11 -11 -18 -23 -15 -25 8 -9 -26 -65
-49 -81 -12 -8 -26 -12 -31 -9 -6 3 -7 1 -4 -4 4 -6 -8 -22 -26 -36 -143 -113
-281 -262 -374 -403 -86 -133 -192 -371 -218 -489 -2 -11 -8 -35 -14 -52 -5
-18 -8 -33 -6 -33 3 0 1 -10 -4 -23 -5 -13 -12 -48 -16 -77 -4 -29 -9 -62 -12
-74 -3 -12 -7 -113 -8 -226 l-3 -205 -48 -13 c-296 -79 -501 -167 -719 -310
-437 -287 -740 -736 -899 -1332 -14 -52 -27 -107 -30 -123 -34 -195 -35 -201
-43 -297 -11 -150 -6 -415 11 -495 2 -11 7 -42 10 -70 8 -64 51 -234 78 -308
12 -33 17 -61 12 -65 -5 -5 -36 -19 -69 -31 -399 -156 -767 -465 -975 -817
-111 -188 -211 -450 -235 -614 -4 -24 -8 -47 -10 -50 -18 -29 -27 -398 -12
-509 43 -332 166 -634 370 -911 97 -131 298 -329 435 -427 61 -45 117 -83 123
-85 13 -4 25 -76 34 -201 4 -42 8 -86 10 -96 2 -10 6 -54 10 -97 3 -43 8 -90
11 -104 2 -14 6 -56 9 -95 3 -38 7 -81 10 -95 2 -14 7 -59 10 -100 3 -41 8
-87 11 -102 2 -15 6 -53 9 -85 3 -32 7 -76 9 -98 21 -202 27 -266 31 -300 7
-60 13 -122 20 -205 4 -41 9 -86 11 -100 2 -14 6 -56 9 -95 11 -138 17 -180
37 -245 71 -233 260 -412 483 -460 38 -9 151 -14 305 -16 296 -3 269 0 268
-21 -1 -18 9 -102 16 -138 2 -11 7 -42 10 -70 4 -27 20 -144 36 -260 17 -115
33 -228 36 -250 3 -22 7 -47 9 -55 2 -8 7 -42 10 -75 3 -33 8 -69 10 -80 5
-24 10 -54 35 -240 11 -77 21 -156 24 -175 14 -94 56 -391 61 -435 3 -27 8
-61 10 -75 6 -31 7 -38 50 -345 20 -137 38 -261 40 -275 2 -14 9 -63 15 -110
12 -92 18 -131 25 -170 2 -14 7 -47 10 -75 3 -27 7 -61 10 -75 2 -14 7 -42 10
-62 12 -84 15 -109 19 -141 15 -110 18 -135 22 -157 2 -14 6 -45 9 -70 3 -25
8 -56 10 -70 3 -14 7 -43 10 -65 3 -22 8 -55 11 -73 3 -17 7 -49 9 -70 4 -31
17 -120 40 -282 2 -14 7 -45 11 -70 3 -25 8 -58 10 -75 2 -24 31 -224 49 -345
2 -14 7 -50 10 -80 4 -30 9 -62 10 -70 1 -8 6 -40 10 -70 4 -30 9 -62 10 -70
4 -25 14 -93 20 -135 3 -22 9 -71 15 -110 5 -38 17 -119 25 -180 50 -360 172
-632 384 -857 151 -161 297 -262 516 -358 104 -45 246 -81 383 -96 86 -10
3749 -10 3862 -1 103 9 124 12 220 38 41 11 80 21 85 22 36 9 152 57 215 90
253 134 443 314 588 560 51 85 124 253 142 325 5 23 14 59 19 80 11 40 17 73
26 142 3 25 8 52 10 60 2 8 7 44 10 80 4 36 8 67 10 70 2 3 6 34 10 70 4 36 8
67 10 70 2 3 6 32 9 65 4 33 8 71 11 85 2 14 7 43 10 65 3 22 12 83 20 135 7
52 16 118 20 145 6 53 12 94 20 135 2 14 7 52 11 85 3 33 8 69 10 80 3 11 7
40 10 65 3 25 7 52 9 60 2 8 7 42 10 75 4 33 8 67 10 75 2 8 7 38 10 65 3 28
8 61 10 75 8 43 13 81 29 195 19 137 23 166 41 285 14 95 23 164 30 230 4 31
12 86 20 130 2 8 6 38 9 65 4 28 9 61 11 75 3 20 50 353 71 510 3 19 7 46 9
60 3 14 7 44 10 67 3 23 19 138 35 255 17 117 33 231 36 253 3 22 7 47 9 55 2
8 7 44 10 80 4 36 9 68 10 71 2 3 6 32 10 65 3 32 7 66 10 74 2 8 6 38 10 65
3 28 12 93 20 145 7 52 16 118 19 145 4 28 8 61 11 75 4 27 7 46 30 205 8 55
17 117 20 137 6 45 11 85 21 153 3 28 7 57 9 65 9 52 18 127 16 138 -2 15 -23
14 269 17 135 1 262 5 283 9 151 29 293 118 393 247 49 64 110 185 119 239 3
18 8 36 10 40 4 6 10 61 20 185 4 39 8 84 10 100 4 29 12 115 20 205 5 59 15
148 20 180 2 14 6 61 10 105 4 44 9 87 10 96 2 9 6 54 9 101 4 47 8 94 10 104
2 10 7 53 11 94 3 41 8 86 10 100 2 14 6 59 10 100 4 41 8 86 10 100 7 58 22
210 30 300 3 36 7 76 10 90 2 14 7 54 10 90 4 36 8 81 10 100 2 19 7 64 10
100 3 36 8 80 10 98 5 43 18 182 19 205 0 12 28 35 78 65 290 172 519 424 666
733 42 88 104 246 117 299 3 8 14 51 26 95 28 108 28 107 43 215 13 98 14 313
2 410 -55 442 -226 879 -485 1235 -36 50 -68 92 -71 95 -3 3 -18 21 -34 40
-112 138 -282 290 -457 408 -42 28 -92 65 -110 82 -110 102 -300 225 -482 313
-77 38 -125 67 -123 74 25 64 50 258 50 378 -1 81 -13 255 -19 265 -2 3 -6 26
-10 50 -28 192 -145 496 -278 722 -91 156 -106 178 -231 348 -156 211 -347
394 -556 533 -96 64 -310 174 -420 216 -47 18 -95 36 -106 41 -62 24 -296 80
-398 95 -22 3 -42 7 -44 10 -3 2 -21 53 -42 112 -61 179 -161 384 -314 641
-90 153 -225 314 -345 412 -24 19 -53 43 -64 53 -37 32 -185 127 -253 163 -76
40 -164 77 -259 109 -131 44 -220 63 -370 81 -33 4 -115 8 -183 8 l-123 1 -28
45 c-25 41 -95 204 -107 248 -49 195 -55 241 -59 467 -3 139 -1 191 8 197 9 6
9 8 1 8 -8 0 -10 11 -5 33 9 40 7 177 -3 236 -20 117 -99 224 -185 249 -37 12
-125 14 -166 5z"/>
<path d="M7950 18059 c0 -5 5 -7 10 -4 6 3 10 8 10 11 0 2 -4 4 -10 4 -5 0
-10 -5 -10 -11z"/>
</g>
</svg>
